<svg width="17" height="21" viewBox="0 0 17 21" fill="none" xmlns="http://www.w3.org/2000/svg">
<path d="M14.172 0H2.15617C0.96727 0 0 0.923303 0 2.05816V18.9418C0 20.0767 0.96727 21 2.15617 21H14.172C15.3609 21 16.3281 20.0767 16.3281 18.9418V2.05816C16.3281 0.923303 15.3609 0 14.172 0ZM15.0391 18.9418C15.0391 19.3982 14.6501 19.7695 14.172 19.7695H2.15617C1.67806 19.7695 1.28906 19.3982 1.28906 18.9418V2.05816C1.28906 1.60178 1.67806 1.23047 2.15617 1.23047H14.172C14.6501 1.23047 15.0391 1.60178 15.0391 2.05816V18.9418Z" fill="#CE1111"/>
<path d="M13.0559 2.43707H3.27225C2.87526 2.43707 2.55226 2.74539 2.55226 3.12433V6.2334C2.55226 6.61234 2.87526 6.92066 3.27225 6.92066H13.0558C13.4528 6.92066 13.7758 6.61234 13.7758 6.2334V3.12433C13.7759 2.74539 13.4529 2.43707 13.0559 2.43707ZM12.4868 5.69015H3.84132V3.66754H12.4868V5.69015H12.4868Z" fill="#CE1111"/>
<path d="M5.21959 7.78406H3.24582C2.8634 7.78406 2.55226 8.08101 2.55226 8.44609V10.3302C2.55226 10.6952 2.86336 10.9922 3.24582 10.9922H5.21959C5.60201 10.9922 5.91315 10.6952 5.91315 10.3302V8.44609C5.91311 8.08101 5.60201 7.78406 5.21959 7.78406ZM4.62404 9.76167H3.84132V9.01453H4.62404V9.76167Z" fill="#CE1111"/>
<path d="M9.15099 7.78406H7.17717C6.79479 7.78406 6.48366 8.08101 6.48366 8.44609V10.3302C6.48366 10.6952 6.79475 10.9922 7.17717 10.9922H9.15099C9.53336 10.9922 9.8445 10.6952 9.8445 10.3302V8.44609C9.84446 8.08101 9.53336 7.78406 9.15099 7.78406ZM8.5554 9.76167H7.77272V9.01453H8.5554V9.76167Z" fill="#CE1111"/>
<path d="M13.0823 7.78406H11.1085C10.7261 7.78406 10.415 8.08101 10.415 8.44609V10.3302C10.415 10.6952 10.7261 10.9922 11.1085 10.9922H13.0823C13.4647 10.9922 13.7758 10.6952 13.7758 10.3302V8.44609C13.7758 8.08101 13.4647 7.78406 13.0823 7.78406ZM12.4868 9.76167H11.7041V9.01453H12.4868V9.76167Z" fill="#CE1111"/>
<path d="M5.21959 11.5912H3.24582C2.8634 11.5912 2.55226 11.8881 2.55226 12.2532V14.1373C2.55226 14.5023 2.86336 14.7993 3.24582 14.7993H5.21959C5.60201 14.7993 5.91315 14.5024 5.91315 14.1373V12.2532C5.91311 11.8882 5.60201 11.5912 5.21959 11.5912ZM4.62404 13.5688H3.84132V12.8217H4.62404V13.5688Z" fill="#CE1111"/>
<path d="M9.15099 11.5912H7.17717C6.79479 11.5912 6.48366 11.8881 6.48366 12.2532V14.1373C6.48366 14.5023 6.79475 14.7993 7.17717 14.7993H9.15099C9.53336 14.7993 9.8445 14.5024 9.8445 14.1373V12.2532C9.84446 11.8882 9.53336 11.5912 9.15099 11.5912ZM8.5554 13.5688H7.77272V12.8217H8.5554V13.5688Z" fill="#CE1111"/>
<path d="M5.21959 15.3984H3.24582C2.8634 15.3984 2.55226 15.6953 2.55226 16.0604V17.9445C2.55226 18.3095 2.86336 18.6065 3.24582 18.6065H5.21959C5.60201 18.6065 5.91315 18.3095 5.91315 17.9445V16.0604C5.91311 15.6953 5.60201 15.3984 5.21959 15.3984ZM4.62404 17.376H3.84132V16.6288H4.62404V17.376Z" fill="#CE1111"/>
<path d="M9.15099 15.3984H7.17717C6.79479 15.3984 6.48366 15.6953 6.48366 16.0604V17.9445C6.48366 18.3095 6.79475 18.6065 7.17717 18.6065H9.15099C9.53336 18.6065 9.8445 18.3095 9.8445 17.9445V16.0604C9.84446 15.6953 9.53336 15.3984 9.15099 15.3984ZM8.5554 17.376H7.77272V16.6288H8.5554V17.376Z" fill="#CE1111"/>
<path d="M13.0823 11.5678H11.1085C10.7261 11.5678 10.415 11.8648 10.415 12.2298V17.9444C10.415 18.3095 10.7261 18.6065 11.1085 18.6065H13.0823C13.4647 18.6065 13.7758 18.3095 13.7758 17.9444V12.2298C13.7758 11.8648 13.4647 11.5678 13.0823 11.5678ZM12.4868 17.376H11.7041V12.7983H12.4868V17.376Z" fill="#CE1111"/>
</svg>
