<svg width="21" height="21" viewBox="0 0 21 21" fill="none" xmlns="http://www.w3.org/2000/svg">
<path d="M10.5 0C4.701 0 0 4.701 0 10.5C0 16.299 4.701 21 10.5 21C16.299 21 21 16.299 21 10.5C20.9938 4.7036 16.2964 0.00619628 10.5 0ZM11.25 10.5C11.25 10.9142 10.9142 11.25 10.5 11.25H4.5C4.08577 11.25 3.74998 10.9142 3.74998 10.5C3.74998 10.0857 4.08577 9.74996 4.5 9.74996H9.75001V4.5C9.75001 4.08577 10.0858 3.74998 10.5 3.74998C10.9143 3.74998 11.25 4.08577 11.25 4.5V10.5Z" fill="#CE1111"/>
</svg>
