<svg width="28" height="28" viewBox="0 0 28 28" fill="none" xmlns="http://www.w3.org/2000/svg">
<path d="M15.5469 14.0001L27.6796 1.86721C28.1068 1.44004 28.1068 0.747482 27.6796 0.320373C27.2525 -0.106736 26.5599 -0.106791 26.1328 0.320373L14 12.4532L1.8672 0.320373C1.44004 -0.106791 0.74748 -0.106791 0.320372 0.320373C-0.106736 0.747537 -0.106791 1.4401 0.320372 1.86721L12.4531 14L0.320372 26.1329C-0.106791 26.56 -0.106791 27.2526 0.320372 27.6797C0.533926 27.8933 0.813871 28 1.09382 28C1.37376 28 1.65365 27.8933 1.86726 27.6797L14 15.5469L26.1327 27.6797C26.3463 27.8933 26.6262 28 26.9062 28C27.1861 28 27.466 27.8933 27.6796 27.6797C28.1068 27.2525 28.1068 26.56 27.6796 26.1329L15.5469 14.0001Z" fill="white"/>
</svg>
