<svg width="21" height="17" viewBox="0 0 21 17" fill="none" xmlns="http://www.w3.org/2000/svg">
<path d="M0.438376 1.90288C3.32054 4.34376 8.37785 8.63802 9.86426 9.97697C10.0638 10.1577 10.2778 10.2496 10.5 10.2496C10.7217 10.2496 10.9354 10.1585 11.1345 9.9787C12.6221 8.63843 17.6795 4.34376 20.5617 1.90288C20.7411 1.75121 20.7685 1.48461 20.6232 1.29917C20.2874 0.870683 19.7866 0.625 19.25 0.625H1.75001C1.21341 0.625 0.712647 0.870684 0.376852 1.29922C0.231575 1.48461 0.258932 1.75121 0.438376 1.90288Z" fill="#CE1111"/>
<path d="M20.7462 3.22563C20.5912 3.15345 20.4087 3.17863 20.2797 3.28888C17.0834 5.99845 13.0041 9.47157 11.7206 10.6281C11.0003 11.2784 10.0005 11.2784 9.27847 10.6272C7.91044 9.39463 3.32948 5.50028 0.720316 3.28884C0.59042 3.17859 0.407572 3.15427 0.253764 3.22559C0.0991348 3.29741 0 3.45208 0 3.62254V14.625C0 15.5902 0.784834 16.375 1.75001 16.375H19.25C20.2152 16.375 21 15.5902 21 14.625V3.62254C21 3.45208 20.9009 3.297 20.7462 3.22563Z" fill="#CE1111"/>
</svg>
