<svg width="17" height="12" viewBox="0 0 17 12" fill="none" xmlns="http://www.w3.org/2000/svg">
<path d="M14.1069 6.88114C13.8321 6.46114 13.9107 6.27429 14.1069 5.89886C14.1105 5.89457 16.3794 2.10086 16.6131 0.814286L16.6145 0.813428C16.7307 0.344571 16.6145 0 16.0528 0H14.1941C13.7209 0 13.5027 0.295714 13.3858 0.626571C13.3858 0.626571 12.4395 3.36771 11.1007 5.14457C10.6686 5.658 10.4688 5.82257 10.2329 5.82257C10.1168 5.82257 9.93614 5.658 9.93614 5.18914V0.813428C9.93614 0.251143 9.80367 0 9.41195 0H6.48927C6.19246 0 6.01608 0.262286 6.01608 0.506572C6.01608 1.03971 6.68548 1.16229 6.7549 2.66229V5.91686C6.7549 6.63 6.64794 6.76114 6.41064 6.76114C5.77878 6.76114 4.24519 4.00886 3.33637 0.858857C3.1529 0.247714 2.97369 0.000857081 2.49696 0.000857081H0.637522C0.106962 0.000857081 0 0.296571 0 0.627428C0 1.212 0.631855 4.11857 2.93827 7.95857C4.4754 10.5797 6.64015 12 8.60938 12C9.79305 12 9.93755 11.6846 9.93755 11.142C9.93755 8.63743 9.83059 8.40086 10.4235 8.40086C10.6983 8.40086 11.1715 8.56543 12.2765 9.82971C13.5396 11.3289 13.7471 12 14.454 12H16.3128C16.8426 12 17.1111 11.6846 16.9567 11.0623C16.6032 9.75343 14.2146 7.06114 14.1069 6.88114V6.88114Z" fill="black"/>
</svg>
